<svg enable-background="new 0 0 58 60" height="512" fill= "#bfbdbd" viewBox="0 0 58 60" width="512" xmlns="http://www.w3.org/2000/svg"><path d="m19.36 58c-4.998 0-9.12-3.812-9.594-8.676-3.676-.469-6.526-3.609-6.526-7.401 0-.354.028-.713.083-1.076-1.399-.987-2.242-2.578-2.242-4.309 0-1.187.407-2.33 1.128-3.252-1.362-.98-2.209-2.564-2.209-4.286 0-1.435.59-2.786 1.598-3.77-1.008-.982-1.598-2.334-1.598-3.768 0-2.23 1.719-4.195 3.633-5.061-.194-.766-.1-1.569.288-2.319.712-1.376 2.281-2.301 3.751-2.232-.074-.382-.112-.77-.112-1.157 0-3.521 2.871-6.385 6.4-6.385.291 0 .682.053 1.184.16 1.198-2.78 3.573-4.468 6.376-4.468 4.125 0 7.48 3.348 7.48 7.462v42c0 .041-.002.081-.007.121-.587 4.799-4.728 8.417-9.633 8.417zm-11.88-44.154c-.665 0-1.448.508-1.782 1.155-.252.487-.213.952.118 1.421.196.276.239.633.113.947-.125.315-.401.545-.733.611-1.478.296-3.196 1.881-3.196 3.482 0 1.198.669 2.306 1.746 2.89.323.175.523.512.523.879 0 .366-.201.704-.523.879-1.077.584-1.746 1.692-1.746 2.89 0 1.389.892 2.635 2.22 3.103.352.124.605.433.658.802s-.104.737-.407.954c-.884.634-1.39 1.61-1.39 2.68 0 1.233.696 2.355 1.815 2.928.414.212.628.682.515 1.133-.115.458-.17.892-.17 1.324 0 3.012 2.458 5.462 5.48 5.462.552 0 1 .447 1 1 0 4.199 3.427 7.615 7.64 7.615 3.875 0 7.149-2.833 7.64-6.601v-41.938c-.001-3.012-2.459-5.462-5.481-5.462-2.218 0-4.011 1.478-4.797 3.951-.162.509-.696.798-1.21.664-1.071-.285-1.459-.308-1.553-.308-2.426 0-4.4 1.967-4.4 4.385 0 .775.213 1.525.635 2.229.242.404.168.923-.177 1.245-.345.32-.868.356-1.255.087-.382-.266-.825-.407-1.283-.407zm20.52 35.616h.01z"/><path d="m19 12c-.552 0-1-.447-1-1 0-2.104-1.132-3.945-2.753-4.477-.525-.172-.811-.736-.639-1.262.172-.524.737-.812 1.262-.639 2.432.798 4.13 3.42 4.13 6.378 0 .553-.448 1-1 1z"/><path d="m4.222 42.923c-.552 0-1-.447-1-1 0-4.147 3.707-7.923 7.778-7.923.552 0 1 .447 1 1s-.448 1-1 1c-2.97 0-5.778 2.878-5.778 5.923 0 .553-.448 1-1 1z"/><path d="m9 22c-.552 0-1-.447-1-1 0-1.822-1.177-3-3-3-.552 0-1-.447-1-1s.448-1 1-1c2.944 0 5 2.056 5 5 0 .553-.448 1-1 1z"/><path d="m16 48c-1.738 0-3-1.262-3-3s1.262-3 3-3c.552 0 1 .447 1 1s-.448 1-1 1c-.635 0-1 .364-1 1s.365 1 1 1c.552 0 1 .447 1 1s-.448 1-1 1z"/><path d="m20 53c-.552 0-1-.447-1-1s.448-1 1-1c.635 0 1-.364 1-1s-.365-1-1-1c-.552 0-1-.447-1-1s.448-1 1-1c1.738 0 3 1.262 3 3s-1.262 3-3 3z"/><path d="m28 49c-.552 0-1-.447-1-1 0-4.411-3.589-8-8-8-.552 0-1-.447-1-1s.448-1 1-1c5.514 0 10 4.486 10 10 0 .553-.448 1-1 1z"/><path d="m19 35c-2.757 0-5-2.243-5-5 0-.553.448-1 1-1s1 .447 1 1c0 1.654 1.346 3 3 3s3-1.346 3-3-1.346-3-3-3c-.552 0-1-.447-1-1s.448-1 1-1c2.757 0 5 2.243 5 5s-2.243 5-5 5z"/><path d="m18 22c-2.206 0-4-1.794-4-4s1.794-4 4-4 4 1.794 4 4c0 .553-.448 1-1 1s-1-.447-1-1c0-1.103-.897-2-2-2s-2 .897-2 2 .897 2 2 2c.552 0 1 .447 1 1s-.448 1-1 1z"/><path d="m54 17c-2.206 0-4-1.794-4-4s1.794-4 4-4 4 1.794 4 4-1.794 4-4 4zm0-6c-1.103 0-2 .897-2 2s.897 2 2 2 2-.897 2-2-.897-2-2-2z"/><path d="m41 60c-2.206 0-4-1.794-4-4s1.794-4 4-4 4 1.794 4 4-1.794 4-4 4zm0-6c-1.103 0-2 .897-2 2s.897 2 2 2 2-.897 2-2-.897-2-2-2z"/><path d="m54 51c-2.206 0-4-1.794-4-4s1.794-4 4-4 4 1.794 4 4-1.794 4-4 4zm0-6c-1.103 0-2 .897-2 2s.897 2 2 2 2-.897 2-2-.897-2-2-2z"/><path d="m44 8c-2.206 0-4-1.794-4-4s1.794-4 4-4 4 1.794 4 4-1.794 4-4 4zm0-6c-1.103 0-2 .897-2 2s.897 2 2 2 2-.897 2-2-.897-2-2-2z"/><path d="m41 54c-.552 0-1-.447-1-1v-3c0-.552-.448-1-1-1-2.206 0-4-1.794-4-4s-1.794-4-4-4h-3c-.552 0-1-.447-1-1s.448-1 1-1h3c3.308 0 6 2.691 6 6 0 1.103.897 2 2 2 1.654 0 3 1.346 3 3v3c0 .553-.448 1-1 1z"/><path d="m54 45c-.552 0-1-.447-1-1v-3c0-.552-.448-1-1-1h-5.525c-2.079 0-3.475-1.607-3.475-4 0-1.103-.897-2-2-2h-13c-.552 0-1-.447-1-1s.448-1 1-1h13c2.206 0 4 1.794 4 4 0 .602.144 2 1.475 2h5.525c1.654 0 3 1.346 3 3v3c0 .553-.448 1-1 1z"/><path d="m42 28h-14c-.552 0-1-.447-1-1s.448-1 1-1h14c1.103 0 2-.897 2-2 0-2.206 1.794-4 4-4h4c.552 0 1-.448 1-1v-3c0-.553.448-1 1-1s1 .447 1 1v3c0 1.654-1.346 3-3 3h-4c-1.103 0-2 .897-2 2 0 2.206-1.794 4-4 4z"/><path d="m32 20h-4c-.552 0-1-.447-1-1s.448-1 1-1h4c1.654 0 3-1.346 3-3 0-2.206 1.794-4 4-4h3c.552 0 1-.448 1-1v-3c0-.553.448-1 1-1s1 .447 1 1v3c0 1.654-1.346 3-3 3h-3c-1.103 0-2 .897-2 2 0 2.757-2.243 5-5 5z"/></svg>